<?xml version="1.0" standalone="no"?>
<!DOCTYPE svg PUBLIC "-//W3C//DTD SVG 20010904//EN"
 "http://www.w3.org/TR/2001/REC-SVG-20010904/DTD/svg10.dtd">
<svg version="1.0" xmlns="http://www.w3.org/2000/svg"
 width="839.000000pt" height="839.000000pt" viewBox="0 0 839.000000 839.000000"
 preserveAspectRatio="xMidYMid meet">
<metadata>
Created by potrace 1.14, written by Peter Selinger 2001-2017
</metadata>
<g transform="translate(0.000000,839.000000) scale(0.100000,-0.100000)"
fill="#000000" stroke="none">
<path d="M0 4200 l0 -4190 4195 0 4195 0 0 4190 0 4190 -4195 0 -4195 0 0
-4190z m3012 2075 c472 -83 853 -435 974 -902 35 -134 44 -355 20 -499 -39
-226 -124 -408 -276 -589 -159 -189 -369 -321 -626 -392 l-99 -27 -707 -3
-708 -4 -2 -347 -3 -347 -347 -3 -348 -2 0 1565 0 1565 1018 0 c865 0 1030 -2
1104 -15z m4498 -330 l0 -345 -1220 0 -1220 0 0 -1220 0 -1220 -347 2 -348 3
-3 1563 -2 1562 1570 0 1570 0 0 -345z m-2 -1737 l-3 -1043 -1042 -3 -1043 -2
0 1045 0 1045 1045 0 1045 0 -2 -1042z m-243 -1458 c11 -22 23 -30 42 -30 29
0 63 25 63 47 0 10 9 13 28 11 22 -2 27 -7 24 -28 -4 -34 -49 -79 -88 -86 -58
-11 -134 46 -134 100 0 30 48 19 65 -14z m-4095 -360 c62 -135 114 -251 117
-257 4 -9 -6 -13 -30 -13 -33 0 -36 3 -63 65 l-28 65 -121 0 -120 -1 -29 -64
c-27 -62 -30 -65 -63 -65 -24 0 -34 4 -30 13 3 6 49 107 102 222 53 116 106
230 116 254 12 26 23 40 28 35 5 -5 59 -119 121 -254z m1269 231 c47 -24 104
-81 128 -126 9 -17 18 -64 21 -105 3 -68 1 -80 -25 -130 -89 -168 -305 -200
-434 -63 -59 62 -74 98 -73 183 0 88 20 133 82 194 78 75 206 95 301 47z
m1574 -229 c64 -141 117 -260 117 -264 0 -5 -15 -8 -32 -8 -31 1 -35 5 -62 65
l-29 65 -118 0 -119 0 -29 -65 c-28 -60 -32 -65 -62 -65 -25 0 -30 4 -27 18 9
30 232 512 238 512 3 0 58 -116 123 -258z m-4875 216 l3 -28 -90 0 -91 0 0
-230 0 -230 -35 0 -35 0 0 253 c0 140 3 257 7 261 4 3 59 5 122 4 l116 -3 3
-27z m254 9 c71 -30 99 -121 60 -196 -26 -52 -62 -73 -134 -80 l-63 -6 -3
-107 -3 -108 -29 0 -30 0 0 261 0 262 83 -5 c45 -3 99 -13 119 -21z m219 -112
c40 -74 76 -135 79 -135 3 0 36 61 74 135 67 133 69 135 102 135 19 0 34 -3
34 -7 0 -5 -58 -120 -128 -258 -124 -242 -130 -250 -160 -253 -18 -2 -32 1
-32 8 0 6 16 42 35 80 19 38 35 75 35 82 0 7 -41 87 -90 177 -50 90 -90 166
-90 168 0 1 15 3 34 3 34 0 36 -2 107 -135z m689 -125 l0 -260 -30 0 -30 0 0
230 0 230 -120 0 -120 0 0 -230 0 -230 -35 0 -35 0 0 253 c0 140 3 257 7 260
3 4 87 7 185 7 l178 0 0 -260z m460 0 l0 -260 -30 0 -30 0 -2 228 -3 227 -117
3 -118 3 -2 -228 -3 -228 -32 -3 -33 -3 0 260 0 261 185 0 185 0 0 -260z
m1040 146 l5 -110 105 112 c97 105 107 112 142 112 21 0 38 -3 38 -7 0 -4 -51
-60 -114 -123 l-115 -115 80 -90 c44 -49 98 -111 120 -137 l41 -48 -44 0 c-43
1 -44 1 -148 124 l-105 123 -5 -121 -5 -121 -32 -3 -33 -3 0 261 0 261 33 -3
32 -3 5 -109z m930 94 c0 -5 38 -89 86 -187 l85 -178 58 120 c31 66 72 153 91
193 30 65 35 71 42 50 9 -27 88 -464 88 -485 0 -10 -10 -13 -32 -11 l-33 3
-25 152 c-14 83 -28 154 -31 157 -3 3 -38 -66 -79 -154 -40 -88 -76 -160 -79
-160 -3 0 -39 72 -80 160 -41 88 -77 158 -80 155 -3 -3 -16 -74 -30 -158 l-26
-152 -32 -3 c-20 -2 -33 1 -33 8 0 11 71 409 86 483 5 24 24 30 24 7z m870
-240 l0 -260 -30 0 -30 0 0 230 0 230 -120 0 -120 0 0 -230 0 -230 -35 0 -35
0 0 253 c0 140 3 257 7 260 3 4 87 7 185 7 l178 0 0 -260z m640 155 l0 -105
120 0 119 0 3 103 3 102 33 3 32 3 0 -261 0 -261 -32 3 -33 3 -3 123 -3 122
-119 0 -120 0 0 -126 0 -125 -32 3 -33 3 -3 245 c-1 134 0 250 3 257 2 7 18
13 35 13 l30 0 0 -105z m462 -77 l3 -181 152 176 c84 97 158 179 163 182 7 4
9 -78 8 -252 l-3 -258 -32 -3 -33 -3 -2 180 -3 181 -155 -180 c-85 -99 -155
-180 -157 -180 -2 0 -3 117 -3 260 l0 260 30 0 30 0 2 -182z m478 0 l1 -183
26 30 c14 17 74 86 133 155 59 69 119 139 133 155 l26 30 1 -262 0 -263 -30 0
-30 0 -2 182 -3 182 -150 -176 c-82 -97 -156 -179 -162 -182 -10 -4 -13 49
-13 248 0 139 3 256 7 259 3 4 19 7 35 7 l28 0 0 -182z"/>
<path d="M1590 5076 l0 -526 617 0 c408 0 639 4 682 11 368 63 554 484 352
796 -65 100 -154 169 -277 215 -58 22 -66 22 -716 26 l-658 3 0 -525z"/>
<path d="M3001 2418 c-23 -51 -41 -96 -41 -100 0 -9 170 -11 170 -2 0 9 -72
178 -80 187 -4 4 -26 -34 -49 -85z"/>
<path d="M4233 2565 c-73 -37 -106 -89 -111 -174 -3 -55 1 -74 20 -111 63
-117 215 -145 314 -57 91 80 96 216 10 302 -68 68 -149 82 -233 40z"/>
<path d="M5843 2412 c-24 -52 -41 -97 -39 -99 2 -2 42 -3 88 -1 l85 3 -39 90
c-22 50 -43 93 -46 97 -4 3 -26 -37 -49 -90z"/>
<path d="M1252 2488 l3 -93 45 4 c63 4 98 28 106 69 4 18 1 45 -5 58 -13 30
-66 54 -116 54 l-36 0 3 -92z"/>
</g>
</svg>
