<svg xmlns="http://www.w3.org/2000/svg" viewBox="0 0 164.82 128.9"><defs><style>.cls-1{fill:#f16522;}</style></defs><title>Ресурс 1</title><g id="Слой_2" data-name="Слой 2"><g id="Слой_1-2" data-name="Слой 1"><path class="cls-1" d="M164.82,127.13a2.78,2.78,0,0,1-2.94,1.77H2.55a2.39,2.39,0,0,1-2.26-3.58c.55-1.24,1.17-2.44,1.76-3.65L25.63,73.2a2.86,2.86,0,0,1,2.78-1.75h21.3a2.87,2.87,0,0,1,2.26,1l8.21,9.15c.13.15.24.32.46.61h-.9q-12.15,0-24.32,0a3.11,3.11,0,0,0-3.11,1.9Q24.17,100.84,16,117.59c-.08.18-.14.37-.24.61H149.07c-.12-.28-.21-.5-.31-.72q-8.1-16.67-16.2-33.35a3.17,3.17,0,0,0-3.15-2q-12.16,0-24.32,0h-.94a5.43,5.43,0,0,1,.4-.54l8.19-9.17a3,3,0,0,1,2.31-1h21.44a2.75,2.75,0,0,1,2.63,1.65q10,20.43,19.9,40.87l5.19,10.68c.22.45.41.91.61,1.37Z"/><path class="cls-1" d="M81.47,0c18.72,0,34.15,12.54,37.5,30.12a39.3,39.3,0,0,1-7.06,31.45,142.7,142.7,0,0,1-10.4,12.24c-4.55,5-9,10.13-12.33,16-1.54,2.7-2.85,5.53-4.18,8.34a2.86,2.86,0,0,1-2.61,2,2.7,2.7,0,0,1-2.65-2A72.45,72.45,0,0,0,67,78.08C63.42,74,59.76,70,56.23,65.93a47.75,47.75,0,0,1-8.6-13.81,38.87,38.87,0,0,1,17.72-48A34.87,34.87,0,0,1,81.47,0Zm1,17.61a19.71,19.71,0,1,0,19.65,20A19.76,19.76,0,0,0,82.46,17.61Z"/></g></g></svg>