<svg xmlns="http://www.w3.org/2000/svg" viewBox="0 0 156.41 156.43"><defs><style>.cls-1{fill:#f16522;}</style></defs><title>Ресурс 5</title><g id="Слой_2" data-name="Слой 2"><g id="Слой_1-2" data-name="Слой 1"><path class="cls-1" d="M58.34,0a35.31,35.31,0,0,1,3.83,2.9q19.64,19.53,39.2,39.15c.39.39.85.72,1.11.94L43.11,102.37c-.19-.18-.63-.58-1.06-1Q22.46,81.79,2.9,62.17A35.31,35.31,0,0,1,0,58.34V55.9A23.54,23.54,0,0,1,1.94,53c1.43-1.58,3-3.06,4.51-4.55,2.25-2.2,4.14-2.52,7.07-1.25.66.29,1.32.55,2.28.95-.29-.71-.4-1-.55-1.35-1.89-4.07-1.64-5.51,1.51-8.67L32.09,22.84c2.58-2.56,5-2.81,8-.81q7.09,4.75,14.19,9.52c.38.26.79.49,1.58,1-.54-.82-.8-1.25-1.08-1.66L45.4,17c-2.19-3.24-2-5.46.82-8.25,1.94-2,3.83-4,5.85-5.81A43.83,43.83,0,0,1,55.9,0Z"/><path class="cls-1" d="M51.41,110.65,110.5,51.56c4.09,4,8.35,8,12.41,12.2,2,2.06,1.61,5-.58,7.26-3.57,3.63-7.2,7.2-10.79,10.81-2.86,2.89-4.05,6.29-3,10.31a11.06,11.06,0,0,0,5.14,6.55c9.88,6.46,19.76,12.91,29.57,19.46a47.36,47.36,0,0,1,7.92,6.19A19,19,0,1,1,122,148.48c-8-11.43-15.54-23.13-23.25-34.74-1.66-2.5-3.65-4.5-6.65-5.25-4-1-7.41.21-10.29,3.07-3.47,3.44-6.91,6.91-10.37,10.36-3,3-5.81,3-8.86,0q-5.19-5.18-10.37-10.37C51.9,111.21,51.61,110.87,51.41,110.65ZM144.47,137a7.45,7.45,0,1,0-7.5,7.45A7.51,7.51,0,0,0,144.47,137Z"/></g></g></svg>