<svg xmlns="http://www.w3.org/2000/svg" viewBox="0 0 161.96 120.15"><defs><style>.cls-1{fill:#f16522;stroke:#f26522;stroke-miterlimit:10;}</style></defs><title>Ресурс 5</title><g id="Слой_2" data-name="Слой 2"><g id="Слой_1-2" data-name="Слой 1"><path class="cls-1" d="M110.23,103.58H61.41A19.66,19.66,0,0,1,52.06,117a18.24,18.24,0,0,1-11.28,2.62c-8.86-.83-15.55-7-17.52-16-4.32,0-8.67,0-13,0A9.93,9.93,0,0,1,8,103.26,9.55,9.55,0,0,1,.51,94q0-29.53,0-59.07v-25A9.07,9.07,0,0,1,9.83.51q40.35,0,80.69,0a9.45,9.45,0,0,1,9.79,9.82c0,3.94,0,7.88,0,11.82v1.14c2.5-.08,4.91-.2,7.32-.21,6.62,0,13.25.16,19.86-.06A15.75,15.75,0,0,1,141,29.14c5.83,7.35,11.41,14.93,16.79,22.62a21.37,21.37,0,0,1,3.66,12.79c-.13,9.63,0,19.27,0,28.91a10,10,0,0,1-10.11,10.06h-3.06A19.22,19.22,0,0,1,140,116.28a19,19,0,0,1-12,3.32C119.3,119.14,112,112.61,110.23,103.58ZM23.25,97a9.94,9.94,0,0,0,.3-1,19.26,19.26,0,0,1,37.52-.22c.21,1,.54,1.27,1.53,1.27,10,0,19.95,0,29.92,0,.4,0,.8,0,1.26-.07V11c0-2.88-1.13-4-4-4H10.49C7.7,7,7,7.69,7,10.43V92.77c0,.33,0,.67,0,1A3,3,0,0,0,10.18,97C14.5,97.07,18.81,97,23.25,97Zm93.14-67.38a3.48,3.48,0,0,0-.49-.1c-4,0-8,0-11.94,0a3.48,3.48,0,0,0-3.65,3.71V97c3.21,0,6.26,0,9.31,0,.26,0,.66-.52.74-.86a19.28,19.28,0,0,1,37.26-1.59c.81,2.51.81,2.51,3.44,2.5a3.56,3.56,0,0,0,3.87-3.89V69.4c0-.41,0-.81-.07-1.3h-1.31c-9.25,0-18.51-.07-27.77,0-4.48,0-9.45-4.72-9.39-9.34,0-4.06,0-8.12,0-12.19Zm6.38-.07v1.25q0,13.38,0,26.75a3.73,3.73,0,0,0,4.11,4.11h26.38c.43,0,.86,0,1.3-.06a19,19,0,0,0-3.69-8.92q-5.43-7.42-11-14.77a48.61,48.61,0,0,0-4.2-5c-1.62-1.63-3.48-3.13-5.87-3.35S125.22,29.59,122.77,29.59ZM42.38,113.14a12.86,12.86,0,1,0-13-12.86A12.85,12.85,0,0,0,42.38,113.14Zm86.88,0A12.85,12.85,0,1,0,116.36,101,13,13,0,0,0,129.26,113.14Z"/><path class="cls-1" d="M48.89,13.46A32.16,32.16,0,1,1,16.62,44.13,32.15,32.15,0,0,1,48.89,13.46ZM23.07,45.61A25.71,25.71,0,1,0,48.26,19.87,25.78,25.78,0,0,0,23.07,45.61Z"/><path class="cls-1" d="M45.51,26.37H52v1.16c0,6.2,0,12.39,0,18.59a1.81,1.81,0,0,1-.82,1.66c-4.46,3.3-8.89,6.65-13.41,10L34,52.67c3.62-2.72,7.15-5.39,10.71-8a1.88,1.88,0,0,0,.85-1.75c0-5,0-10,0-15.08Z"/></g></g></svg>