<svg xmlns="http://www.w3.org/2000/svg" viewBox="0 0 112.95 136.11"><defs><style>.cls-1{fill:#f16522;}</style></defs><title>Ресурс 2</title><g id="Слой_2" data-name="Слой 2"><g id="Слой_1-2" data-name="Слой 1"><path class="cls-1" d="M43.53,83.18c-.61,0-1.19,0-1.76,0-5,.29-8.69-4.41-8-9,.55-3.78.89-7.58,1.33-11.37Q36.19,53,37.31,43.18c.22-2,.42-4,.62-6,.39-4.15,3.51-6.88,7.9-6.89H68.62a7.74,7.74,0,0,1,6.49,2.92,8.73,8.73,0,0,1,1.48,4.75Q78,51,79.5,64.08c.41,3.63.84,7.25,1.21,10.88a7.59,7.59,0,0,1-7.37,8.21c-.77,0-1.54,0-2.42,0-.15,1.19-.31,2.33-.44,3.47Q68.91,99.83,67.33,113q-1.12,9.63-2.24,19.28A4.18,4.18,0,0,1,61.31,136c-1.37.14-2.76.09-4.14.11-1,0-1.93,0-2.9,0a4.73,4.73,0,0,1-5-4.34c-1-9.57-2.24-19.12-3.37-28.67-.76-6.35-1.49-12.69-2.24-19C43.63,83.79,43.58,83.52,43.53,83.18Z"/><path class="cls-1" d="M9.3,81.75c-1.21-.07-2.35-.06-3.46-.22A6.89,6.89,0,0,1,0,74c.67-6.21,1.43-12.41,2.12-18.62C2.8,49.67,3.44,43.92,4,38.18a7,7,0,0,1,6.58-6.34c3-.11,6-.06,9-.07,4.2,0,8.4,0,12.61,0a8.93,8.93,0,0,1,4,.64,10.49,10.49,0,0,0-.76,1.92c-.33,1.85-.6,3.7-.81,5.57q-1.55,13.43-3.06,26.87c-.3,2.66-.66,5.32-.89,8a9.11,9.11,0,0,0,2.23,6.59c.47.57,1.08,1,1.56,1.6a1.47,1.47,0,0,1,.38,1q-1.7,14.63-3.45,29.24l-1.77,14.9a3.91,3.91,0,0,1-3.86,3.45c-2.38.05-4.76.07-7.14,0a4,4,0,0,1-3.86-3.74c-.66-5.82-1.37-11.64-2.06-17.46Q11.27,98.15,9.82,86C9.66,84.6,9.48,83.2,9.3,81.75Z"/><path class="cls-1" d="M78.09,31.93a9.19,9.19,0,0,1,1-.13c3.32,0,6.64,0,10,0l12.61,0a7.11,7.11,0,0,1,7.26,6.64c.72,6.88,1.52,13.74,2.29,20.62.58,5.14,1.19,10.27,1.72,15.42.36,3.58-2.93,7-6.77,7.19-.8,0-1.6,0-2.51,0-.15,1.24-.3,2.43-.45,3.62q-1.52,12.78-3,25.54-1,8.58-2,17.14a4,4,0,0,1-4,3.55q-3.44.08-6.89,0a4,4,0,0,1-4-3.67q-1.22-10.34-2.45-20.68Q79.5,96,78.15,84.92a.9.9,0,0,1,.48-1A9.78,9.78,0,0,0,83.41,76,46.16,46.16,0,0,0,83,69.14C82.37,63,81.63,56.77,81,50.58c-.54-4.81-1-9.63-1.61-14.43A27.17,27.17,0,0,0,78.09,31.93Z"/><path class="cls-1" d="M69.82,12.66A12.62,12.62,0,1,1,56.87,0,12.59,12.59,0,0,1,69.82,12.66Z"/><path class="cls-1" d="M90.63,27.63a11.93,11.93,0,1,1,12-11.63A12,12,0,0,1,90.63,27.63Z"/><path class="cls-1" d="M34.14,15.71A11.92,11.92,0,1,1,22,3.76,11.93,11.93,0,0,1,34.14,15.71Z"/></g></g></svg>