<svg xmlns="http://www.w3.org/2000/svg" viewBox="0 0 133.38 119.47"><defs><style>.cls-1{fill:#f16522;}</style></defs><title>Ресурс 3</title><g id="Слой_2" data-name="Слой 2"><g id="Слой_1-2" data-name="Слой 1"><path class="cls-1" d="M0,38.41.16,38a2.71,2.71,0,0,1,2.49-1.84c.8,0,1.61,0,2.41,0h.5v-.57q0-9.32,0-18.63a2.94,2.94,0,0,1,.89-2.29,2.79,2.79,0,0,1,1.77-.74H43a1.16,1.16,0,0,0,.8-.25A2.59,2.59,0,0,1,47,13.53a1.86,1.86,0,0,0,1.31.37h.58V9.75a2.78,2.78,0,0,1,5.54-.41c0,.06,0,.13,0,.23a1.6,1.6,0,0,0,1-1.11c.31-1.37.69-2.72,1.07-4.06a2.75,2.75,0,0,1,2.58-2,2.7,2.7,0,0,1,2.7,1.89A8.76,8.76,0,0,1,62,5.84,1.56,1.56,0,0,0,63.21,5c.63-1.21,1.33-2.37,2-3.54A2.73,2.73,0,0,1,68.18.12a2.67,2.67,0,0,1,2.21,2.39,9.2,9.2,0,0,1-.18,1.71,1.42,1.42,0,0,0,1.36-.49c.93-1,1.92-2,2.91-2.92A2.73,2.73,0,0,1,77.56.25a2.67,2.67,0,0,1,1.61,2.68,6.39,6.39,0,0,1-.5,1.47,1.78,1.78,0,0,1-.23.33,1.56,1.56,0,0,0,1.61-.11c1.15-.73,2.33-1.4,3.53-2.05a2.76,2.76,0,0,1,4.1,2.5,2.7,2.7,0,0,1-1,2.07l-.28.24a.06.06,0,0,0,0,0,1.56,1.56,0,0,0,1.56.29c1.23-.38,2.49-.68,3.73-1A2.78,2.78,0,0,1,93.44,12l-.16.07a1.61,1.61,0,0,0,1.37.72c1.32-.06,2.64,0,4,0a2.78,2.78,0,0,1,2.92,2.5,2.74,2.74,0,0,1-2.49,3l-.23,0a1.61,1.61,0,0,0,1.1,1c1.32.3,2.63.67,3.94,1a2.77,2.77,0,0,1-1,5.45l-.35,0a1.5,1.5,0,0,0,.78,1.25c1.22.65,2.41,1.36,3.61,2.07a2.77,2.77,0,0,1,1.35,2.94,2.7,2.7,0,0,1-2.4,2.21,8.55,8.55,0,0,1-1.72-.19,1.51,1.51,0,0,0,.48,1.35,2.13,2.13,0,0,0,1.73.72q12,0,24,0a2.75,2.75,0,0,1,2.87,1.93,3,3,0,0,1,.14.94q0,5.46,0,10.92a2.77,2.77,0,0,1-2.82,2.87c-.89,0-1.78,0-2.73,0v66.66H111.15V91.73H22.26v27.73H5.57V52.81H4.37c-.53,0-1.06,0-1.58,0A2.77,2.77,0,0,1,.08,50.68,1.54,1.54,0,0,0,0,50.49ZM22.25,86.12h88.86V52.83H101c.26,1,.54,2,.77,3a2.77,2.77,0,0,1-5.22,1.76l-.17-.38c-.7.61-.7.61-.7,1.49,0,1.39,0,2.78,0,4.17a2.71,2.71,0,0,1-2.41,2.57,2.76,2.76,0,0,1-3-2c0-.21-.08-.42-.12-.65A1.62,1.62,0,0,0,89,63.9c-.31,1.35-.68,2.69-1.07,4a2.76,2.76,0,0,1-5.34-.25,8.44,8.44,0,0,1-.07-1.24,1.54,1.54,0,0,0-1.25.82c-.64,1.23-1.36,2.42-2.07,3.61a2.74,2.74,0,0,1-3.06,1.24,2.69,2.69,0,0,1-2.06-2.57A8.37,8.37,0,0,1,74.31,68c-.8-.05-.84,0-1.4.53-1,1-1.92,1.94-2.9,2.88a2.77,2.77,0,0,1-4.09-3.73l.13-.19a1.54,1.54,0,0,0-1.59.1c-1.16.73-2.36,1.41-3.57,2.06a2.61,2.61,0,0,1-2.94-.2,2.65,2.65,0,0,1-1.1-2.71,2.81,2.81,0,0,1,1.3-1.92,1.64,1.64,0,0,0-1.52-.34c-1.33.42-2.69.76-4.06,1.09a2.72,2.72,0,0,1-3.25-1.85,2.76,2.76,0,0,1,1.57-3.4l.32-.15c-.66-.68-.66-.68-1.53-.68-1.37,0-2.75,0-4.12,0A2.74,2.74,0,0,1,42.94,57,2.78,2.78,0,0,1,45,54.07c.21,0,.42-.08.72-.13-.27-.33-.43-.71-.72-.84a3.17,3.17,0,0,0-1.33-.28c-7,0-14,0-21,0l-.45,0ZM5.59,47.22H127.78V41.7H5.59ZM11.13,36.1H66.65V33.34H49.84a2.77,2.77,0,0,1,.33-5.53H66.66V19.46H36.09c-.21,0-.31.06-.35.29a14.66,14.66,0,0,1-.4,1.48,12.76,12.76,0,0,1-6.48,7.89A14.86,14.86,0,0,1,22,30.57H11.13Zm72.25,0H98.59A26.27,26.27,0,0,0,58.14,13.9H69.21a4.79,4.79,0,0,1,.66,0,2.8,2.8,0,0,1,2.37,2.93c0,2.54,0,5.08,0,7.62V25A11.28,11.28,0,0,1,83.38,36.1ZM11.14,52.83v52.74h5.5V52.83Zm111.1,52.75V52.84h-5.51v52.74ZM51.83,52.83c11,13.46,31.14,12.36,40.8,0ZM11.13,25H22a13.89,13.89,0,0,0,1.82-.11A7.1,7.1,0,0,0,30,19.68a.53.53,0,0,0,0-.18H11.13ZM72.26,36.1h5.49a5.43,5.43,0,0,0-5.49-5.49ZM11.14,111.18v2.73h5.51v-2.73Zm105.58,2.73h5.52v-2.72h-5.52Z"/></g></g></svg>