<svg xmlns="http://www.w3.org/2000/svg" viewBox="0 0 161.31 162.62"><defs><style>.cls-1{fill:#f16522;}.cls-2{fill:#fff;}</style></defs><title>Ресурс 7</title><g id="Слой_2" data-name="Слой 2"><g id="Слой_1-2" data-name="Слой 1"><path class="cls-1" d="M115.12,12.7a46.84,46.84,0,0,1-1.21,5.95c-1.49,4.45-.73,7.8,3.38,10.66,2,1.4,3.49,2.34,5.87,1.34,1.54-.64,3.33-.75,4.84-1.46,3.41-1.59,5.49-.67,7.57,2.5,1.77,2.7,2.41,4.74-.18,7-5.59,4.83-5.2,10.34-1.7,16a11,11,0,0,0,3.49,2.9,6.65,6.65,0,0,0,2.25.57c8.3,1.8,8.3,1.8,9.22,10.57a101.84,101.84,0,0,0-9.2,4.79,7.94,7.94,0,0,0-2.64,4.09c-1.85,5.72,1,9.19,5.8,11.81,1.52.84,3.79,2.32,3.78,3.49,0,2.49-1.26,5-2.15,7.42-.15.42-1,.72-1.58.83a13.81,13.81,0,0,1-2.73.14c-5.34-.12-11-.94-12.29,7.08l-11.25-8.49c4.54-8.32,7.21-16.9,6.82-26.26-.88-20.88-10.77-36.08-29.9-44.17s-37-4.67-52.16,9.32c-14.81,13.68-19.43,31-13.49,50.24,5.89,19.06,19.46,30.42,39.08,33.92,5.15.91,10.64.24,15.93-.17,2.46-.19,4.41-.25,6.47,1.43,4.84,3.94,9.93,7.58,14.88,11.41,3.45,2.67,2.82,6-1,7.9-3.66,1.83-6.44,1.83-8.64-2-.68-1.22-2-2.07-2.76-3.27-1.47-2.4-3.47-2.18-6-2.22-6.65-.12-9.56,3.44-11.33,9.22-1.19,3.89-6.13,5.51-9.89,3.67a3.66,3.66,0,0,1-1.4-2.08,21.83,21.83,0,0,1-1.27-4.9c-.45-4.52-2.54-7.08-7.25-8-2.47-.47-4.33-1-6.17,1.14-1.1,1.26-2.7,2.11-3.76,3.39-2.54,3.07-4.9,3.08-8.27.9-2.68-1.72-3.35-3.23-2.66-6.24,2.19-9.66,1.65-11-6.08-16.83a4.81,4.81,0,0,0-3.21-.52,22.85,22.85,0,0,0-5.67,1.4c-4.21,1.79-6.63.34-8.57-3.58-1.06-2.15-1.59-3.63.34-5.42a35,35,0,0,0,2.95-3.64c3.68-4.52,3.93-6.82,1-11.64a3.72,3.72,0,0,0-2.1-1.42c-1.76-.47-3.58-.68-5.37-1C1,89.33,1.22,89.3.13,83.31c-.45-2.48.27-3.62,2.39-4.43,1.09-.41,2-1.21,3.14-1.54,4.93-1.48,6.86-4.69,6.57-9.82-.12-2.28-.33-4-2.45-5.14-1.36-.75-2.45-2-3.83-2.7-3.69-1.85-4.3-4.22-2.81-8.16,1.07-2.85,2.28-4.07,5.18-3.77a18.29,18.29,0,0,1,1.95,0c7,1.66,9.61-3.11,12-8.13a4.22,4.22,0,0,0-.33-3.12c-1.57-3.26-3.34-6.43-5-9.56,5.67-7,5.76-7.15,13.42-3.43,3.41,1.66,5.65,1.06,9-.62,5.85-2.91,7.39-7.08,6.32-12.79-.81-4.3,2-5,5-6.25s4.81-.2,6.3,2.34A27.15,27.15,0,0,0,59.1,8.93c3,3.92,5.65,4.79,10.2,3.17a3.86,3.86,0,0,0,1.78-1.81c.8-1.48,1.39-3.08,2.07-4.62,2.65-6,3.45-6.43,9.88-5A3.5,3.5,0,0,1,85,2.59,12.12,12.12,0,0,1,86.11,6.7c.38,5.09,2.94,7.64,8,8.67,2.75.56,4.68.64,6.48-1.52a7.35,7.35,0,0,1,.88-.77C107.92,7.45,107.92,7.45,115.12,12.7Z"/><path class="cls-1" d="M45.67,55.49C61.1,47.61,79,58.93,79.22,76.18a6.74,6.74,0,0,0,3,6.1q21.42,16,42.61,32.31a7.34,7.34,0,0,0,7.34,1.52c16.26-4.51,32.18,10,28.62,26.66-5-3.77-9.65-7.73-14.77-10.88a17.22,17.22,0,0,0-9.37-2.52c-4.14.24-6.94,3.24-8,7.45-1.2,4.69.37,8.52,4,11.43,4.86,3.9,9.89,7.58,15.38,11.77-6.8,3.28-13.23,3.41-19.47.61-9.12-4.11-14-11.41-14-21.52a6.66,6.66,0,0,0-3.07-6.08q-21.12-15.75-42-31.85c-2.83-2.19-5.19-2.8-8.76-1.89-16.29,4.18-31.54-10.34-28-26.72,5.16,3.9,10.16,7.81,15.29,11.53,3.95,2.85,8.25,3.17,12.43.56,3.78-2.36,5.82-6.12,4.57-10.32a19.12,19.12,0,0,0-5.47-8.12C55.37,62.4,50.58,59.21,45.67,55.49ZM70.59,83.74l-4,5.15L123,131.63l4-5.16Z"/><path class="cls-2" d="M70.59,83.74l56.33,42.73-4,5.16L66.63,88.89Z"/></g></g></svg>