<svg xmlns="http://www.w3.org/2000/svg" viewBox="0 0 165.85 159.06"><defs><style>.cls-1{fill:#f16522;}.cls-2{fill:#fff;fill-rule:evenodd;}</style></defs><title>Ресурс 3</title><g id="Слой_2" data-name="Слой 2"><g id="Слой_1-2" data-name="Слой 1"><path class="cls-1" d="M83.41,37.14c1.07,1,39.78,39.39,57.87,57.79a12.48,12.48,0,0,1,3.2,7.71c.33,12.14.19,24.3.14,36.46-.06,12.66-7.16,19.88-19.8,19.91q-41.71.11-83.42,0c-12.38,0-19.34-7.26-19.34-19.71s-.08-25,.09-37.46c0-2,.66-4.43,2-5.74C43.29,76.67,82.78,37.56,83.41,37.14Z"/><path class="cls-1" d="M82.7,24.92C80.42,28,38.62,71,18.74,90.44c-2.47,2.42-6.62,4.56-9.9,4.43C1,94.58-2.65,85,2.17,78.74A31.35,31.35,0,0,1,4.9,75.82q36-36,72.09-72.08c5-5,6.92-5,11.93,0q36.4,36.39,72.78,72.8c6.86,6.88,4.94,16.21-3.7,18.35-4.64,1.15-7.92-1.27-11-4.35C128.77,72.27,86.77,29.54,82.7,24.92Z"/><path class="cls-2" d="M103.38,110.64a1.24,1.24,0,0,1,.68-.88l2.87-.56a5,5,0,0,0,3.93-5.84L110,98.68a5,5,0,0,0-5.84-3.93l-2.87.56a1.22,1.22,0,0,1-1-.56,25,25,0,0,0-1.48-2.21,1.21,1.21,0,0,1-.14-1.08L100.31,89A5,5,0,0,0,99,82.12l-4-2.67a5,5,0,0,0-6.91,1.35l-1.64,2.44a.93.93,0,0,1-.56.28,1.05,1.05,0,0,1-.5,0A25.85,25.85,0,0,0,82.8,83a1.24,1.24,0,0,1-.89-.68l-.56-2.87a4.94,4.94,0,0,0-2.09-3.16V97.41a9.7,9.7,0,0,1,1.87,19.21,10,10,0,0,1-1.87.18v21.14a5,5,0,0,0,3.75.77l2.4-.47a4.41,4.41,0,0,1-1.2-3v-2.63a4.42,4.42,0,0,1,4.4-4.41h.79l0-.13-.56-.55a4.42,4.42,0,0,1,0-6.22l1.87-1.87a4.22,4.22,0,0,1,1.31-.89l.12-.06a4.38,4.38,0,0,1,1.68-.34,4.43,4.43,0,0,1,1.69.34,4.37,4.37,0,0,1,1.42,1l.56.56.12,0v-.79a4.4,4.4,0,0,1,4.4-4.4h1.71l-.64-.43a1.21,1.21,0,0,1-.28-1.06A21.79,21.79,0,0,0,103.38,110.64ZM79.26,76.28a4.93,4.93,0,0,0-3.75-.77l-4.68.91a5,5,0,0,0-3.93,5.84l.57,2.88a1.22,1.22,0,0,1-.56,1,25,25,0,0,0-2.21,1.48,1.3,1.3,0,0,1-.46.19,1,1,0,0,1-.62-.05l-2.44-1.64a5,5,0,0,0-6.91,1.35l-2.66,4A5,5,0,0,0,53,98.28l2.44,1.64a1.23,1.23,0,0,1,.28,1.06,23.54,23.54,0,0,0-.54,2.6,1.22,1.22,0,0,1-.68.88l-2.87.56a5,5,0,0,0-3.93,5.84l.92,4.68a5,5,0,0,0,5.84,3.93l2.87-.56a1.18,1.18,0,0,1,1,.56,26.31,26.31,0,0,0,1.47,2.2,1.15,1.15,0,0,1,.14,1.08l-1.64,2.44a5,5,0,0,0,1.36,6.91l4,2.66a5,5,0,0,0,6.91-1.35L72.08,131a1,1,0,0,1,.56-.28,1.19,1.19,0,0,1,.5,0,25.85,25.85,0,0,0,2.59.53,1.2,1.2,0,0,1,.88.68l.56,2.87a5.07,5.07,0,0,0,2.09,3.16V116.8A9.7,9.7,0,0,1,77.4,97.59a9.93,9.93,0,0,1,1.86-.18Z"/><path class="cls-2" d="M116.07,138.37a.68.68,0,0,1,.47-.41h1.61a2.75,2.75,0,0,0,2.75-2.74v-2.64a2.75,2.75,0,0,0-2.75-2.74h-1.61a.68.68,0,0,1-.47-.41,14.25,14.25,0,0,0-.56-1.35.64.64,0,0,1,0-.6l1.15-1.15a2.75,2.75,0,0,0,0-3.88l-1.86-1.86a2.74,2.74,0,0,0-3.89,0l-1.15,1.14a.48.48,0,0,1-.33.1.57.57,0,0,1-.27-.06,13.23,13.23,0,0,0-1.35-.56.69.69,0,0,1-.41-.46v-1.62a2.75,2.75,0,0,0-2.74-2.75h-1.32v12.17h0a5.35,5.35,0,1,1,0,10.7h0v12.17h1.32a2.75,2.75,0,0,0,2.74-2.75v-1.61a.65.65,0,0,1,.41-.46q.69-.25,1.35-.57a.57.57,0,0,1,.27-.05.49.49,0,0,1,.33.09l1.15,1.15a2.76,2.76,0,0,0,3.89,0l1.86-1.87a2.75,2.75,0,0,0,0-3.88l-1.15-1.15a.64.64,0,0,1,0-.6A13.23,13.23,0,0,0,116.07,138.37Zm-12.69-22h-1.32a2.75,2.75,0,0,0-2.74,2.75v1.62a.69.69,0,0,1-.41.46,14.25,14.25,0,0,0-1.35.56.57.57,0,0,1-.27,0,.52.52,0,0,1-.33-.09l-1.15-1.14a2.73,2.73,0,0,0-3.88,0l-1.86,1.86a2.75,2.75,0,0,0,0,3.88l1.14,1.15a.64.64,0,0,1,0,.6,14.25,14.25,0,0,0-.56,1.35.69.69,0,0,1-.46.41H88.61a2.75,2.75,0,0,0-2.75,2.75v2.63A2.76,2.76,0,0,0,88.61,138h1.62a.67.67,0,0,1,.46.4,13.23,13.23,0,0,0,.56,1.35.64.64,0,0,1,0,.6l-1.15,1.15a2.75,2.75,0,0,0,0,3.89l1.86,1.86a2.75,2.75,0,0,0,3.88,0L97,146.07a.69.69,0,0,1,.6,0,14.25,14.25,0,0,0,1.35.56.69.69,0,0,1,.41.46v1.62a2.75,2.75,0,0,0,2.74,2.75h1.32V139.25a5.35,5.35,0,1,1,0-10.7Z"/></g></g></svg>