<svg xmlns="http://www.w3.org/2000/svg" viewBox="0 0 153.27 130.6"><defs><style>.cls-1{fill:#f16522;}</style></defs><title>Ресурс 4</title><g id="Слой_2" data-name="Слой 2"><g id="Слой_1-2" data-name="Слой 1"><path class="cls-1" d="M0,70.89Q5.51,58.64,11,46.38C13.48,41,16,35.59,18.49,30.2a3.9,3.9,0,0,1,.69-1.08Q33.57,14.72,48,.35c.1-.1.22-.19.41-.35L65.48,16.94,82.09.53a11.52,11.52,0,0,1,3.27,5.83A11.14,11.14,0,0,1,82.07,17C78,21,74,25.08,69.89,29.14c-.22.22-.42.45-.59.63l12,12c1.14-1,2.35-2.2,3.59-3.31.31-.28.48-.92,1.16-.56.08,0,.38-.31.56-.49,2.65-2.65,5.29-5.32,8-7.95a11.42,11.42,0,0,1,8-3.45,11.54,11.54,0,0,1,8.36,3.34L94.24,46.47l42.34,42.45c-1.79,1.75-3.51,3.41-5.2,5.1q-9.59,9.57-19.15,19.16a1.67,1.67,0,0,1-1.6.58c-2-.33-3.95-.54-5.87-1a11.19,11.19,0,0,1-8.39-8q-1.05-3.39-2.2-6.75a15.46,15.46,0,0,0-3.83-6c-2.74-2.68-5.41-5.44-8.2-8.26-.72.72-1.41,1.32-2,2a17.69,17.69,0,0,1-6.43,4.51c-11.6,5.27-23.16,10.66-34.73,16a11.38,11.38,0,0,1-13.15-2c-.93-.86-1.78-1.8-2.74-2.78L64.8,59,48.2,42.36,6,84.24c-2.7-2.36-5-4.87-5.78-8.46A2.2,2.2,0,0,0,0,75.39Z"/><path class="cls-1" d="M136.54,130.6,121.7,116l16.56-16.54,15,14.47Z"/></g></g></svg>