<svg xmlns="http://www.w3.org/2000/svg" viewBox="0 0 165.97 157.86"><defs><style>.cls-1{fill:#f16522;}</style></defs><title>Ресурс 6</title><g id="Слой_2" data-name="Слой 2"><g id="Слой_1-2" data-name="Слой 1"><path class="cls-1" d="M57.39,157.86c-2.55-4.64-5-9.16-7.51-13.67-1.75-3.21-3.52-6.41-5.22-9.64A3.32,3.32,0,0,0,42,132.63c-8.42-1.49-16.8-3.14-25.2-4.74-.25,0-.52,0-.89-.07.35-3,.67-5.83,1-8.7.72-5.6,1.32-11.23,2.27-16.8.36-2.16-.31-3.42-1.73-4.89C11.6,91.39,5.87,85.21,0,79q4.08-4.37,8.18-8.73c3.55-3.78,7.11-7.54,10.64-11.34a2,2,0,0,0,.52-1.37c-1-7.8-2.05-15.59-3.07-23.38-.17-1.32-.27-2.64-.4-4,9-1.71,17.78-3.43,26.61-5a2.55,2.55,0,0,0,2-1.62C48.69,15.74,53,8,57.28,0l10,4.71C72.13,7,77,9.26,81.74,11.58a2.41,2.41,0,0,0,2.37,0Q96,5.91,107.86.32l.73-.32,6.11,11.17c2.33,4.24,4.61,8.51,7,12.71a3,3,0,0,0,1.88,1.19c8.8,1.72,17.61,3.36,26.49,5-.47,3.88-.92,7.67-1.4,11.45-.69,5.29-1.44,10.56-2,15.86a2.85,2.85,0,0,0,.9,1.87c6.09,6.51,12.21,13,18.45,19.58q-4.25,4.53-8.5,9c-3.47,3.7-7,7.38-10.42,11.1a1.82,1.82,0,0,0-.46,1.26c.65,5.18,1.35,10.35,2,15.53q.74,5.52,1.45,11a4.29,4.29,0,0,1-.08.83l-18.08,3.44c-3,.55-5.93,1-8.87,1.67a2.44,2.44,0,0,0-1.33,1.19q-6.24,11.29-12.41,22.64c-.2.37-.41.72-.68,1.18-4.54-2.14-9-4.22-13.47-6.33-3.69-1.74-7.35-3.54-11.07-5.21a2.88,2.88,0,0,0-2.16,0C73.8,150.06,65.7,153.92,57.39,157.86Zm25.2-24.48c29.17-.07,54.34-22.54,54.76-54a54.37,54.37,0,1,0-108.73-.61C28.41,107.85,51.13,132.62,82.59,133.38Z"/><path class="cls-1" d="M83,123a44.11,44.11,0,1,1,44.11-42.87C126.51,103.36,107.26,123.13,83,123ZM111.76,62.9l-8-6.45L80.69,84.83,64.4,71.29l-6.54,7.87,24.25,20.2Z"/></g></g></svg>