<svg xmlns="http://www.w3.org/2000/svg" viewBox="0 0 105 125"><defs><style>.cls-1{fill:none;stroke:#f16522;stroke-miterlimit:10;stroke-width:8px;}.cls-2{fill:#f16522;}</style></defs><title>Ресурс 6</title><g id="Слой_2" data-name="Слой 2"><g id="Слой_1-2" data-name="Слой 1"><rect class="cls-1" x="4" y="4" width="97" height="117" rx="19" ry="19"/><path class="cls-2" d="M28.93,39.9a12.62,12.62,0,0,1-4.36.88,9.61,9.61,0,0,1-6.77-2.45,8.18,8.18,0,0,1-2.66-6.27A8,8,0,0,1,18,25.67a9.6,9.6,0,0,1,6.5-2.33,11,11,0,0,1,4.4.91v5.12A5.52,5.52,0,0,0,25,27.84a4.09,4.09,0,0,0-3.12,1.28,4.25,4.25,0,0,0-1.14,3,4,4,0,0,0,1.2,3A4.2,4.2,0,0,0,25,36.27a5.55,5.55,0,0,0,3.94-1.46Z"/><path class="cls-2" d="M50.51,40.29h-5.4v-6.4a9,9,0,0,1-3.36.55c-2.11,0-3.64-.45-4.59-1.34a5.56,5.56,0,0,1-1.36-4.19V23.82h5.34v4.5a2.38,2.38,0,0,0,.44,1.61,2,2,0,0,0,1.51.48,6.05,6.05,0,0,0,2-.3V23.82h5.4Z"/><path class="cls-2" d="M69.22,40.29h-11V23.82h11v4.1H63.59v2.15h5.22V34H63.59v2.23h5.63Z"/><path class="cls-2" d="M88,28H84.27V40.29H78.88V28H75.12V23.82H88Z"/><path class="cls-2" d="M61.5,69h-42A3.5,3.5,0,0,1,16,65.5h0A3.5,3.5,0,0,1,19.5,62h42A3.5,3.5,0,0,1,65,65.5h0A3.5,3.5,0,0,1,61.5,69Z"/><path class="cls-2" d="M61.5,83h-42A3.5,3.5,0,0,1,16,79.5h0A3.5,3.5,0,0,1,19.5,76h42A3.5,3.5,0,0,1,65,79.5h0A3.5,3.5,0,0,1,61.5,83Z"/><path class="cls-2" d="M61.5,97h-42A3.5,3.5,0,0,1,16,93.5h0A3.5,3.5,0,0,1,19.5,90h42A3.5,3.5,0,0,1,65,93.5h0A3.5,3.5,0,0,1,61.5,97Z"/><path class="cls-2" d="M82.5,69h-6A3.5,3.5,0,0,1,73,65.5h0A3.5,3.5,0,0,1,76.5,62h6A3.5,3.5,0,0,1,86,65.5h0A3.5,3.5,0,0,1,82.5,69Z"/><path class="cls-2" d="M82.5,83h-6A3.5,3.5,0,0,1,73,79.5h0A3.5,3.5,0,0,1,76.5,76h6A3.5,3.5,0,0,1,86,79.5h0A3.5,3.5,0,0,1,82.5,83Z"/><path class="cls-2" d="M82.5,97h-6A3.5,3.5,0,0,1,73,93.5h0A3.5,3.5,0,0,1,76.5,90h6A3.5,3.5,0,0,1,86,93.5h0A3.5,3.5,0,0,1,82.5,97Z"/></g></g></svg>