<svg xmlns="http://www.w3.org/2000/svg" viewBox="0 0 117 112.52"><defs><style>.cls-1{fill:#f16522;}</style></defs><title>Ресурс 4</title><g id="Слой_2" data-name="Слой 2"><g id="Слой_1-2" data-name="Слой 1"><path class="cls-1" d="M88.94,92,44.55,47.55,40.06,52,22.68,34.57a13.41,13.41,0,0,1-7.46,7.29L32.69,59.41l-4.24,4.41L73,108.21s8.81,9.21,17,.72C97.92,99.47,88.94,92,88.94,92Zm-7.11,16.41a7,7,0,1,1,7-7A7,7,0,0,1,81.83,108.43Z"/><path class="cls-1" d="M10.46,19.35A10.46,10.46,0,1,0,20.91,29.8,10.45,10.45,0,0,0,10.46,19.35Zm0,16.76a6.31,6.31,0,1,1,6.3-6.31A6.31,6.31,0,0,1,10.46,36.11Z"/><path class="cls-1" d="M28.06,20.51,72.45,65l4.49-4.41L94.32,78a13.41,13.41,0,0,1,7.46-7.29L84.31,53.11l4.24-4.4L44,4.32S35.19-4.9,27,3.6C19.08,13.05,28.06,20.51,28.06,20.51ZM35.18,4.1a7,7,0,1,1-7,7A7,7,0,0,1,35.18,4.1Z"/><path class="cls-1" d="M106.55,93.18A10.46,10.46,0,1,0,96.09,82.72,10.45,10.45,0,0,0,106.55,93.18Zm0-16.76a6.31,6.31,0,1,1-6.31,6.3A6.3,6.3,0,0,1,106.55,76.42Z"/></g></g></svg>