<svg xmlns="http://www.w3.org/2000/svg" viewBox="0 0 229.49 156.89"><defs><style>.cls-1,.cls-3{fill:#f16522;}.cls-2{fill:none;stroke:#f16522;stroke-miterlimit:22.93;stroke-width:6.23px;}.cls-3{fill-rule:evenodd;}</style></defs><title>Ресурс 2</title><g id="Слой_2" data-name="Слой 2"><g id="Слой_1-2" data-name="Слой 1"><circle class="cls-1" cx="60.56" cy="63.24" r="21.16" transform="translate(-9.69 10.98) rotate(-9.59)"/><circle class="cls-2" cx="60.56" cy="63.24" r="29.65" transform="matrix(0.26, -0.97, 0.97, 0.26, -16.09, 105.57)"/><circle class="cls-1" cx="32.76" cy="123.39" r="21.16"/><circle class="cls-2" cx="32.76" cy="123.39" r="29.65" transform="translate(-2.18 0.6) rotate(-1.02)"/><circle class="cls-1" cx="105.58" cy="124.13" r="21.16" transform="translate(-56.85 111.01) rotate(-45)"/><circle class="cls-2" cx="105.58" cy="124.13" r="29.65" transform="translate(-25.41 27.19) rotate(-13.11)"/><path class="cls-3" d="M82.82,34.46c-6.65-3.79-14.13-5.24-22.26-4.93L196.36,0a10.86,10.86,0,0,1,8.74,3.57Z"/><path class="cls-3" d="M207.67,22.7C167.48,44.52,127.13,66.37,87,88.18c13.28-11.91,14.84-25.24,9.1-40.59L207.91,9.42C209.9,12.06,209.62,16.61,207.67,22.7Z"/><path class="cls-3" d="M115.27,89.32c-5.73-1.45-10.57-2.9-17.56-.42L214.56,26.77c3.14-1.12,5.57-.73,7.51.71C187,47.36,150.33,69.45,115.27,89.32Z"/><path class="cls-3" d="M228.9,45.66c-35.2,31.73-54.61,59.87-89.8,91.6,7-14.36,2.79-27.26-5.19-38.17,32.61-22.82,60-44.84,92.62-67.67C228.27,33.12,230.61,39.71,228.9,45.66Z"/></g></g></svg>